<svg viewBox="0 0 100 100" fill="none" xmlns="http://www.w3.org/2000/svg">
    <defs>
        <linearGradient id="goldGradientBright" x1="0" y1="0" x2="100" y2="100" gradientUnits="userSpaceOnUse">
            <stop offset="0%" stopColor="#FFFFFF" /> 
            <stop offset="30%" stopColor="#FFD700" />
            <stop offset="70%" stopColor="#DAA520" />
            <stop offset="100%" stopColor="#B8860B" />
        </linearGradient>
    </defs>
    <path d="M50 94 L18 71 L8 40 L29 9 L50 34 L71 9 L92 40 L82 71 Z" stroke="rgba(218, 165, 32, 0.8)" strokeWidth="1.5" fill="none"/>
    <path d="M50 92 L20 70 L10 40 L30 10 L50 35 Z" fill="url(#goldGradientBright)" />
    <path d="M50 35 L70 10 L90 40 L80 70 L50 92 Z" fill="url(#goldGradientBright)" fillOpacity="0.85"/>
    <path d="M50 35 L50 92 L80 70 L50 35 Z" fill="#171717" fill-opacity="0.6" />
    <path d="M30 10 L38 35 L50 35 L30 10" fill="white" fillOpacity="0.5" />
    <path d="M32 48 L44 52 L32 54 Z" fill="#171717" />
    <path d="M68 48 L56 52 L68 54 Z" fill="#171717" />
</svg>
